<?xml version="1.0" encoding="UTF-8"?>
<svg id="Layer_1" xmlns="http://www.w3.org/2000/svg" xmlns:xlink="http://www.w3.org/1999/xlink" version="1.1" viewBox="0 0 329.71 23.44">
  <!-- Generator: Adobe Illustrator 29.4.0, SVG Export Plug-In . SVG Version: 2.1.0 Build 152)  -->
  <defs>
    <style>
      .st0 {
        fill: url(#linear-gradient2);
      }

      .st1 {
        fill: url(#linear-gradient1);
      }

      .st2 {
        fill: url(#linear-gradient9);
      }

      .st3 {
        fill: url(#linear-gradient3);
      }

      .st4 {
        fill: url(#linear-gradient6);
      }

      .st5 {
        fill: url(#linear-gradient8);
      }

      .st6 {
        fill: url(#linear-gradient7);
      }

      .st7 {
        fill: url(#linear-gradient5);
      }

      .st8 {
        fill: url(#linear-gradient4);
      }

      .st9 {
        fill: url(#linear-gradient18);
      }

      .st10 {
        fill: url(#linear-gradient13);
      }

      .st11 {
        fill: url(#linear-gradient12);
      }

      .st12 {
        fill: url(#linear-gradient15);
      }

      .st13 {
        fill: url(#linear-gradient16);
      }

      .st14 {
        fill: url(#linear-gradient11);
      }

      .st15 {
        fill: url(#linear-gradient10);
      }

      .st16 {
        fill: url(#linear-gradient17);
      }

      .st17 {
        fill: url(#linear-gradient14);
      }

      .st18 {
        fill: url(#linear-gradient19);
      }

      .st19 {
        fill: url(#linear-gradient);
      }
    </style>
    <linearGradient id="linear-gradient" x1="0" y1="11.7" x2="4.89" y2="11.7" gradientUnits="userSpaceOnUse">
      <stop offset="0" stop-color="#b47b45"/>
      <stop offset=".1" stop-color="#f3e586"/>
      <stop offset=".3" stop-color="#c58b4c"/>
      <stop offset=".45" stop-color="#b47b45"/>
      <stop offset=".61" stop-color="#e4b669"/>
      <stop offset=".81" stop-color="#f3e586"/>
      <stop offset="1" stop-color="#f3e586"/>
    </linearGradient>
    <linearGradient id="linear-gradient1" x1="8.28" y1="14.47" x2="24.48" y2="14.47" xlink:href="#linear-gradient"/>
    <linearGradient id="linear-gradient2" x1="26.07" y1="14.64" x2="44.39" y2="14.64" xlink:href="#linear-gradient"/>
    <linearGradient id="linear-gradient3" x1="44.69" y1="14.64" x2="61.25" y2="14.64" xlink:href="#linear-gradient"/>
    <linearGradient id="linear-gradient4" x1="62.84" y1="14.64" x2="77.77" y2="14.64" xlink:href="#linear-gradient"/>
    <linearGradient id="linear-gradient5" x1="79.04" y1="12.57" x2="90.16" y2="12.57" xlink:href="#linear-gradient"/>
    <linearGradient id="linear-gradient6" x1="91.59" y1="14.64" x2="108.15" y2="14.64" xlink:href="#linear-gradient"/>
    <linearGradient id="linear-gradient7" x1="110.07" y1="14.64" x2="126.37" y2="14.64" xlink:href="#linear-gradient"/>
    <linearGradient id="linear-gradient8" x1="129.04" x2="145.24" xlink:href="#linear-gradient"/>
    <linearGradient id="linear-gradient9" x1="155.4" x2="169.98" xlink:href="#linear-gradient"/>
    <linearGradient id="linear-gradient10" x1="172.42" y1="11.56" x2="188.59" y2="11.56" xlink:href="#linear-gradient"/>
    <linearGradient id="linear-gradient11" x1="199.18" x2="214.56" xlink:href="#linear-gradient"/>
    <linearGradient id="linear-gradient12" x1="216.65" y1="20.6" x2="222.42" y2="20.6" xlink:href="#linear-gradient"/>
    <linearGradient id="linear-gradient13" x1="225.32" x2="240.7" xlink:href="#linear-gradient"/>
    <linearGradient id="linear-gradient14" x1="242.79" y1="20.6" x2="248.56" y2="20.6" xlink:href="#linear-gradient"/>
    <linearGradient id="linear-gradient15" x1="250.97" y1="11.72" x2="271.21" y2="11.72" xlink:href="#linear-gradient"/>
    <linearGradient id="linear-gradient16" x1="273.39" y1="20.6" x2="279.16" y2="20.6" xlink:href="#linear-gradient"/>
    <linearGradient id="linear-gradient17" x1="281.67" y1="14.11" x2="291.71" y2="14.11" xlink:href="#linear-gradient"/>
    <linearGradient id="linear-gradient18" x1="294.71" x2="309.8" xlink:href="#linear-gradient"/>
    <linearGradient id="linear-gradient19" x1="312.08" x2="329.71" xlink:href="#linear-gradient"/>
  </defs>
  <path class="st19" d="M0,.29h4.89v22.82H0V.29Z"/>
  <path class="st1" d="M16.59,9.78c-1.99,0-3.55,1.14-3.55,3.72v9.62h-4.76V6.16h4.76v3.55h.2c.29-1.6,1.92-3.88,5.41-3.88,3.29,0,5.84,2.12,5.84,6.52v10.76h-4.76v-9.62c0-2.57-1.14-3.72-3.13-3.72Z"/>
  <path class="st0" d="M26.07,6.16h4.86l4.24,12.39h.16l4.24-12.39h4.82l-6.16,16.95h-6l-6.16-16.95Z"/>
  <path class="st3" d="M44.69,14.6c0-6.32,4.01-8.77,8.51-8.77s8.05,2.28,8.05,8.7c0,.62-.03.94-.1,1.3h-11.93c.26,2.84,1.73,3.98,4.07,3.98,2.18,0,3.13-.88,3.52-2.25h4.21c-.85,3.88-3.85,5.87-7.79,5.87-4.3,0-8.54-2.38-8.54-8.83ZM56.75,13.04c-.06-1.96-1.08-3.59-3.68-3.59-2.22,0-3.52,1.24-3.85,3.59h7.53Z"/>
  <path class="st8" d="M62.84,17.54h4.27c.16,1.6,1.24,2.35,3.1,2.35,1.6,0,2.67-.55,2.67-1.76,0-.78-.52-1.27-1.63-1.5l-3.13-.65c-3.55-.82-4.82-2.71-4.82-4.96,0-3.29,2.84-5.18,6.94-5.18,4.53,0,6.91,2.22,6.98,5.87h-3.98c-.2-1.69-1.3-2.31-2.93-2.31s-2.38.59-2.38,1.5c0,.85.62,1.4,1.76,1.63l3.2.69c2.67.59,4.89,1.82,4.89,4.82,0,3.78-3.49,5.41-7.6,5.41-4.53,0-7.3-1.99-7.34-5.9Z"/>
  <path class="st7" d="M81.91,18.03v-8.18h-2.87v-3.68h2.87V1.79h4.76v4.37h3.36v3.68h-3.36v7.5c0,1.3.39,2.18,2.15,2.18.36,0,.65,0,1.34-.06v3.55c-.75.19-1.66.33-2.61.33-3.39,0-5.64-1.53-5.64-5.31Z"/>
  <path class="st4" d="M91.59,14.6c0-6.32,4.01-8.77,8.51-8.77s8.05,2.28,8.05,8.7c0,.62-.03.94-.1,1.3h-11.93c.26,2.84,1.73,3.98,4.07,3.98,2.18,0,3.13-.88,3.52-2.25h4.21c-.85,3.88-3.85,5.87-7.79,5.87-4.3,0-8.54-2.38-8.54-8.83ZM103.65,13.04c-.06-1.96-1.08-3.59-3.68-3.59-2.22,0-3.52,1.24-3.85,3.59h7.53Z"/>
  <path class="st6" d="M110.07,14.67c0-6.32,4.37-8.83,8.54-8.83,2.97,0,7.14,1.17,7.76,6.88h-4.3c-.42-2.05-1.66-2.9-3.49-2.9-2.71,0-4.01,2.05-4.01,4.86s1.3,4.79,4.01,4.79c1.89,0,3.06-.95,3.49-2.97h4.3c-.52,5.71-4.76,6.94-7.76,6.94-4.17,0-8.54-2.45-8.54-8.77Z"/>
  <path class="st5" d="M137.35,9.78c-1.99,0-3.55,1.14-3.55,3.72v9.62h-4.76V.29h4.76v9.42h.2c.29-1.6,1.92-3.88,5.41-3.88,3.29,0,5.84,2.12,5.84,6.52v10.76h-4.76v-9.62c0-2.57-1.14-3.72-3.13-3.72Z"/>
  <path class="st2" d="M165.48,4.21h-10.07V.29h14.57v3.91c-4.11,6.13-6.94,12.26-7.43,18.91h-4.47c.52-6.59,3.32-12.78,7.4-18.91Z"/>
  <path class="st15" d="M178.42,12.22c3.06-1.76,5.38-2.71,5.41-5.25.06-2.31-1.69-2.93-3.19-2.93-1.73,0-3.29.94-3.29,3.52v.46h-4.6v-.65c0-4.04,2.31-7.37,7.95-7.37,5.15,0,7.89,2.74,7.89,6.68,0,4.47-3.49,6.29-6.23,7.82-3.26,1.89-4.5,3.1-4.5,4.56v.1h10.66v3.94h-16.1v-1.08c0-4.14,1.17-6.98,6-9.81Z"/>
  <path class="st14" d="M199.18.29h4.89v18.58h10.5v4.24h-15.39V.29Z"/>
  <path class="st11" d="M216.65,20.6c0-1.57,1.3-2.84,2.87-2.84s2.9,1.27,2.9,2.84-1.3,2.84-2.9,2.84-2.87-1.24-2.87-2.84Z"/>
  <path class="st10" d="M225.32.29h4.89v18.58h10.5v4.24h-15.39V.29Z"/>
  <path class="st17" d="M242.79,20.6c0-1.57,1.3-2.84,2.87-2.84s2.9,1.27,2.9,2.84-1.3,2.84-2.9,2.84-2.87-1.24-2.87-2.84Z"/>
  <path class="st12" d="M250.97,11.7c0-7.37,4.17-11.7,10.79-11.7,4.99,0,9,2.54,9.45,8.22h-4.76c-.65-2.84-2.51-4.01-4.86-4.01-3.98,0-5.64,3.29-5.64,7.5s1.63,7.53,5.64,7.53c2.35,0,4.21-1.17,4.86-4.04h4.76c-.46,5.7-4.47,8.25-9.52,8.25-6.55,0-10.72-4.34-10.72-11.74Z"/>
  <path class="st13" d="M273.39,20.6c0-1.57,1.3-2.84,2.87-2.84s2.9,1.27,2.9,2.84-1.3,2.84-2.9,2.84-2.87-1.24-2.87-2.84Z"/>
  <path class="st16" d="M281.67,12.32h10.04v3.59h-10.04v-3.59Z"/>
  <path class="st9" d="M294.71.29h15.09v4.24h-10.2v5.35h8.44v3.94h-8.44v9.29h-4.89V.29Z"/>
  <path class="st18" d="M312.08,18.87l12.09-14.34h-11.83V.29h17.24v4.24l-12.13,14.34h12.26v4.24h-17.64v-4.24Z"/>
</svg>